<svg id="Calque_1" data-name="Calque 1" xmlns="http://www.w3.org/2000/svg" viewBox="0 0 130.45 172.35"><defs><style>.cls-1{fill:#000;}</style></defs><path class="cls-1" d="M141.52,139.21a11.06,11.06,0,0,0,8.22-18.45,49.85,49.85,0,0,0,1.76-13.34c0-14.8-5.78-26.75-15.36-35.44a13,13,0,0,0,3.4-8.35V61c0-11.53-23.46-20.88-52.39-20.88A122.89,122.89,0,0,0,65.4,42c-4.15-8.89-9-19.31-12.79-27.46C48.89,6.56,32.83-6.75,27.1,7c-2.33,5.61,8,9.37,15.29,17.16,3.53,3.77,8.16,12.52,12,20.54-12,3.83-19.64,9.7-19.64,16.29v2.62A13,13,0,0,0,38.16,72c-9.58,8.69-15.37,20.65-15.37,35.44A46.58,46.58,0,0,0,29,131.26a11.07,11.07,0,0,0,4.24,21.29,10.89,10.89,0,0,0,3.62-.62l9.94-3.43c11,6.38,25.1,9.67,40.4,9.67l1.55,0,3,8a11.07,11.07,0,1,0,20.75-7.7l-1.24-3.33c11.44-3.07,21.24-8.47,28.32-16.07l.89.09a10.65,10.65,0,0,0,1.12.06ZM121.22,68.3A72.45,72.45,0,0,1,108.06,72a5.67,5.67,0,0,1,.29,1.81,6,6,0,0,1-6,6c-.21,0-.43,0-.63,0V90.58a6.56,6.56,0,0,1-6.56,6.56c-3.62,0-6.56-2.94-6.56-5.56V82.3c-1.16-.22-2.57.25-4.08.25a7.29,7.29,0,0,1-7.27-7.28,7.44,7.44,0,0,1,.23-1.79c-9.25-.75-17.84-2.54-24.43-5.17-8.46-3.37-10.29-6.66-10.29-7.3s1.83-3.94,10.29-7.31q2.22-.89,4.73-1.64c1.82,4,3.17,7.24,3.67,8.42a5.83,5.83,0,0,1,2.87-.77,5.75,5.75,0,0,1,3.18.95,7.26,7.26,0,0,1,4.94-3.48l-4.54-9.76a7.15,7.15,0,0,1,4.75-2.52,7.26,7.26,0,0,1,6.8,3.17,6,6,0,0,1,10.29.11c11.33.24,22.18,2.07,30.3,5.09a4.12,4.12,0,0,1,2.22-.64,4.2,4.2,0,0,1,4.15,3.58c4,2.36,5.07,4.32,5.07,4.8,0,.63-1.84,3.93-10.29,7.3Z" transform="translate(-22.12 -1.06)"/></svg>