<?xml version="1.0" encoding="UTF-8"?>
<svg id="Calque_1" data-name="Calque 1" xmlns="http://www.w3.org/2000/svg" viewBox="0 0 348.42 205.47">
  <defs>
    <style>
      .cls-1 {
        fill: white;
      }
    </style>
  </defs>
  <g>
    <path class="cls-1" d="M155.32,47.99c.13,.73,.76,1.24,1.48,1.24,.09,0,.17,0,.26-.02,.82-.14,1.36-.92,1.22-1.74l-2.84-16.09c-.14-.82-.93-1.36-1.74-1.22-.82,.14-1.36,.92-1.22,1.74l2.84,16.09Z"/>
    <path class="cls-1" d="M90.7,100.51c.61,0,1.19-.38,1.41-.99,.28-.78-.12-1.64-.9-1.92l-32.1-11.68c-.78-.28-1.64,.12-1.92,.9-.28,.78,.12,1.64,.9,1.92l32.1,11.68c.17,.06,.34,.09,.51,.09Z"/>
    <path class="cls-1" d="M283.11,170.64c.17,.06,.34,.09,.51,.09,.61,0,1.19-.38,1.41-.99,.28-.78-.12-1.64-.9-1.92l-13.29-4.84c-.78-.28-1.64,.12-1.92,.9-.28,.78,.12,1.64,.9,1.92l13.29,4.84Z"/>
    <path class="cls-1" d="M304.24,126.74h-30.02c-.83,0-1.5,.67-1.5,1.5s.67,1.5,1.5,1.5h30.02c.83,0,1.5-.67,1.5-1.5s-.67-1.5-1.5-1.5Z"/>
    <path class="cls-1" d="M37.74,126.74c-.83,0-1.5,.67-1.5,1.5s.67,1.5,1.5,1.5h34.35c.83,0,1.5-.67,1.5-1.5s-.67-1.5-1.5-1.5H37.74Z"/>
    <path class="cls-1" d="M87.83,156.91l-29.98,10.91c-.78,.28-1.18,1.14-.9,1.92,.22,.61,.8,.99,1.41,.99,.17,0,.34-.03,.51-.09l29.98-10.91c.78-.28,1.18-1.14,.9-1.92-.28-.78-1.14-1.18-1.92-.9Z"/>
    <path class="cls-1" d="M284.79,86.82c-.28-.78-1.14-1.18-1.92-.9l-8.17,2.97c-.78,.28-1.18,1.14-.9,1.92,.22,.61,.8,.99,1.41,.99,.17,0,.34-.03,.51-.09l8.17-2.97c.78-.28,1.18-1.14,.9-1.92Z"/>
    <path class="cls-1" d="M249.84,62.07c.3,.35,.72,.54,1.15,.54,.34,0,.68-.12,.96-.35l3.41-2.86c.63-.53,.72-1.48,.19-2.11-.53-.63-1.48-.72-2.11-.19l-3.41,2.86c-.63,.53-.72,1.48-.19,2.11Z"/>
    <path class="cls-1" d="M216.41,49.59c.24,.14,.49,.2,.75,.2,.52,0,1.02-.27,1.3-.75l4.68-8.13c.41-.72,.17-1.64-.55-2.05-.72-.41-1.64-.17-2.05,.55l-4.68,8.13c-.41,.72-.17,1.64,.55,2.05Z"/>
    <path class="cls-1" d="M184.93,49.21c.09,.02,.18,.02,.26,.02,.71,0,1.35-.51,1.48-1.24l2.84-16.09c.14-.82-.4-1.59-1.22-1.74-.81-.14-1.59,.4-1.74,1.22l-2.84,16.09c-.14,.82,.4,1.59,1.22,1.74Z"/>
    <path class="cls-1" d="M170.99,24.42c.83,0,1.5-.67,1.5-1.5V10.92c0-.83-.67-1.5-1.5-1.5s-1.5,.67-1.5,1.5v12c0,.83,.67,1.5,1.5,1.5Z"/>
    <path class="cls-1" d="M102.67,49.14c.3,.35,.72,.54,1.15,.54,.34,0,.68-.12,.96-.35,.63-.53,.72-1.48,.19-2.11l-13.11-15.62c-.53-.63-1.48-.72-2.11-.18-.63,.53-.72,1.48-.19,2.11l13.11,15.62Z"/>
    <path class="cls-1" d="M284.4,191.98l-33.22-19.18c-.72-.42-1.63-.17-2.05,.55-.41,.72-.17,1.63,.55,2.05l33.22,19.18c.24,.14,.49,.2,.75,.2,.52,0,1.02-.27,1.3-.75,.41-.72,.17-1.63-.55-2.05Z"/>
    <path class="cls-1" d="M54.04,62.44l22.18,12.81c.24,.14,.49,.2,.75,.2,.52,0,1.02-.27,1.3-.75,.41-.72,.17-1.63-.55-2.05l-22.18-12.81c-.72-.42-1.64-.17-2.05,.55-.41,.72-.17,1.63,.55,2.05Z"/>
    <path class="cls-1" d="M26.23,104.24l33,5.82c.09,.02,.18,.02,.26,.02,.71,0,1.35-.51,1.48-1.24,.14-.82-.4-1.59-1.22-1.74l-33-5.82c-.81-.14-1.59,.4-1.74,1.22-.14,.82,.4,1.59,1.22,1.74Z"/>
    <path class="cls-1" d="M307.91,152.38c-.14,.82,.4,1.59,1.22,1.74l26.95,4.76c.09,.02,.18,.02,.26,.02,.71,0,1.35-.51,1.48-1.24,.14-.82-.4-1.59-1.22-1.74l-26.95-4.76c-.81-.14-1.59,.4-1.74,1.22Z"/>
    <path class="cls-1" d="M118.65,68.19c.74-.6,1.55-1.19,2.42-1.78l-10.86-12.95c-.53-.63-1.48-.72-2.11-.18-.63,.53-.72,1.48-.19,2.11l10.74,12.8Z"/>
    <path class="cls-1" d="M110.63,79.53c.27-.95,.64-1.94,1.13-2.97l-23.21-19.48c-.63-.53-1.58-.45-2.11,.18-.53,.63-.45,1.58,.19,2.11l24.01,20.15Z"/>
    <path class="cls-1" d="M199.42,54.51c.28-.78-.12-1.64-.9-1.92-.78-.28-1.64,.12-1.92,.9l-1.23,3.39c1,.19,1.99,.4,2.97,.62l1.09-2.99Z"/>
    <path class="cls-1" d="M105.06,102.64l-5.71-2.08c-.78-.28-1.64,.12-1.92,.9-.28,.78,.12,1.64,.9,1.92l5.34,1.94c.44-.91,.91-1.8,1.4-2.68Z"/>
    <path class="cls-1" d="M129.53,18.74c1.44,.77,2.83,1.67,4.16,2.65l-2.08-5.71c-.28-.78-1.14-1.18-1.92-.9-.78,.28-1.18,1.14-.9,1.92l.74,2.03Z"/>
    <path class="cls-1" d="M100.25,114.24l-32.11-5.66c-.81-.15-1.59,.4-1.74,1.22-.14,.82,.4,1.59,1.22,1.74l31.89,5.62c.22-.98,.47-1.95,.75-2.91Z"/>
    <path class="cls-1" d="M243.26,168.23l-4.5-2.6c-.78,.74-1.61,1.42-2.5,2.02l5.5,3.18c.24,.14,.49,.2,.75,.2,.52,0,1.02-.27,1.3-.75,.41-.72,.17-1.63-.55-2.05Z"/>
    <path class="cls-1" d="M102.31,183.9c-.63,.53-.72,1.48-.18,2.11,.3,.35,.72,.54,1.15,.54,.34,0,.68-.12,.96-.35l4.55-3.82c-.96-.46-1.89-.99-2.76-1.6l-3.72,3.12Z"/>
    <path class="cls-1" d="M79.37,128.24c0,.83,.67,1.5,1.5,1.5h17.18c.01-1.01,.05-2.01,.11-3h-17.29c-.83,0-1.5,.67-1.5,1.5Z"/>
    <path class="cls-1" d="M96.51,153.75c-.78,.28-1.18,1.14-.9,1.92,.22,.61,.8,.99,1.41,.99,.17,0,.34-.03,.51-.09l1.7-.62c.68-1.47,1.54-2.85,2.56-4.12l-5.29,1.93Z"/>
    <path class="cls-1" d="M301.37,149.7l-58.09-10.24c-.13,.87-.27,1.74-.44,2.6,.07,.13,.12,.27,.19,.4l57.83,10.2c.09,.02,.17,.02,.26,.02,.71,0,1.35-.51,1.48-1.24,.14-.82-.4-1.59-1.22-1.74Z"/>
    <path class="cls-1" d="M172.49,54.66V30.92c0-.83-.67-1.5-1.5-1.5s-1.5,.67-1.5,1.5v23.75c.5,0,1-.02,1.5-.02s1,0,1.5,.01Z"/>
    <path class="cls-1" d="M82.76,79.03l27.54,15.9c.29-.35,.57-.71,.87-1.06-.27-.75-.49-1.52-.67-2.29l-26.24-15.15c-.72-.41-1.63-.17-2.05,.55s-.17,1.63,.55,2.05Z"/>
    <path class="cls-1" d="M212.27,53.74l-3.82,6.62c.91,.32,1.81,.65,2.68,1,.06,.02,.11,.05,.17,.07l3.57-6.19c.41-.72,.17-1.63-.55-2.05-.72-.41-1.63-.17-2.05,.55Z"/>
    <path class="cls-1" d="M262.07,162.89c.61,0,1.19-.38,1.41-.99,.28-.78-.12-1.64-.9-1.92l-17.74-6.46c-.12,1.02-.31,2.02-.58,2.98l17.3,6.3c.17,.06,.34,.09,.51,.09Z"/>
    <path class="cls-1" d="M97.88,168.72l-10.96,6.33c-.72,.41-.96,1.33-.55,2.05,.28,.48,.78,.75,1.3,.75,.25,0,.51-.06,.75-.2l10.37-5.99c-.1-.26-.22-.52-.31-.8-.25-.71-.44-1.42-.6-2.14Z"/>
    <path class="cls-1" d="M243.82,126.74c.06,.99,.1,1.99,.11,3h21.59c.83,0,1.5-.67,1.5-1.5s-.67-1.5-1.5-1.5h-21.7Z"/>
    <path class="cls-1" d="M245.82,65.44c-.53-.63-1.48-.72-2.11-.18l-13.49,11.32c.49,1.02,.86,2.02,1.13,2.96l14.28-11.98c.63-.53,.72-1.48,.19-2.11Z"/>
    <path class="cls-1" d="M244.66,87.43c.72-.41,.96-1.33,.55-2.05-.41-.72-1.33-.96-2.05-.55l-11.68,6.74c-.18,.77-.4,1.54-.67,2.29,.3,.35,.58,.71,.87,1.06l12.98-7.5Z"/>
    <path class="cls-1" d="M267.82,94.59c.78-.28,1.18-1.14,.9-1.92-.28-.78-1.15-1.18-1.92-.9l-29.87,10.87c.49,.88,.96,1.78,1.4,2.68l29.5-10.74Z"/>
    <path class="cls-1" d="M283.97,108.32c-.14-.82-.92-1.36-1.74-1.22l-40.5,7.14c.27,.96,.52,1.93,.75,2.91l40.28-7.1c.82-.14,1.36-.92,1.22-1.74Z"/>
    <path class="cls-1" d="M223.31,68.2l13.38-15.94c.53-.63,.45-1.58-.19-2.11-.64-.53-1.58-.45-2.11,.19l-13.49,16.08c.87,.59,1.67,1.19,2.42,1.79Z"/>
    <path class="cls-1" d="M225.51,172.02c-.76,.67-1.54,1.31-2.35,1.95l14.57,12.23c.28,.24,.62,.35,.96,.35,.43,0,.85-.18,1.15-.54,.53-.63,.45-1.58-.19-2.11l-14.15-11.87Z"/>
    <path class="cls-1" d="M48.94,148.23l-37.12,6.54c-.82,.14-1.36,.92-1.22,1.74,.13,.73,.76,1.24,1.48,1.24,.09,0,.17,0,.26-.02l37.12-6.54c.82-.14,1.36-.92,1.22-1.74-.14-.82-.92-1.36-1.74-1.22Z"/>
    <path class="cls-1" d="M57.87,149.7l41.34-7.28c-.2-.98-.37-1.96-.52-2.95l-41.34,7.28c-.82,.14-1.36,.92-1.22,1.74,.13,.73,.76,1.24,1.48,1.24,.09,0,.17,0,.26-.02Z"/>
    <path class="cls-1" d="M289.31,107.37c.13,.73,.76,1.24,1.48,1.24,.09,0,.17,0,.26-.02l24.7-4.35c.82-.14,1.36-.92,1.22-1.74-.14-.82-.93-1.36-1.74-1.22l-24.7,4.35c-.82,.14-1.36,.92-1.22,1.74Z"/>
    <path class="cls-1" d="M79.29,179.45l-21.7,12.53c-.72,.41-.96,1.33-.55,2.05,.28,.48,.78,.75,1.3,.75,.25,0,.51-.06,.75-.2l21.7-12.53c.72-.41,.96-1.33,.55-2.05-.41-.72-1.33-.96-2.05-.55Z"/>
    <path class="cls-1" d="M249.91,82.66c.28,.48,.78,.75,1.3,.75,.25,0,.51-.06,.75-.2l35.98-20.77c.72-.41,.96-1.33,.55-2.05-.41-.72-1.33-.96-2.05-.55l-35.98,20.77c-.72,.41-.96,1.33-.55,2.05Z"/>
    <path class="cls-1" d="M200.26,47.84c.17,.06,.34,.09,.51,.09,.61,0,1.19-.38,1.41-.99l6.88-18.9c.28-.78-.12-1.64-.9-1.92-.77-.28-1.64,.12-1.92,.9l-6.88,18.9c-.28,.78,.12,1.64,.9,1.92Z"/>
    <path class="cls-1" d="M209.89,21.39c.17,.06,.34,.09,.51,.09,.61,0,1.19-.38,1.41-.99l1.47-4.05v-.26c0-.83-.67-1.5-1.5-1.5-.66,0-1.23,.43-1.42,1.03l-1.37,3.75c-.28,.78,.12,1.64,.9,1.92Z"/>
    <path class="cls-1" d="M240.54,46.84c.43,0,.85-.18,1.15-.54l10.73-12.78c.53-.63,.45-1.58-.19-2.11-.63-.53-1.58-.45-2.11,.18l-10.73,12.78c-.53,.63-.45,1.58,.19,2.11,.28,.24,.62,.35,.96,.35Z"/>
  </g>
  <path class="cls-1" d="M225.02,162.09c5.58,0,10.37-4.24,10.93-9.91,.32-3.2-.77-6.2-2.76-8.42,1.13-4.1,1.75-8.52,1.75-13.26,0-14.7-5.75-26.57-15.27-35.21,2.18-2.58,3.38-5.37,3.38-8.29v-2.61c0-11.45-23.31-20.74-52.05-20.74-7.71,0-15.03,.67-21.61,1.87-4.12-8.84-8.94-19.19-12.71-27.29-3.69-7.93-19.65-21.16-25.34-7.48-2.32,5.58,7.94,9.31,15.19,17.05,3.51,3.75,8.11,12.44,11.93,20.41-11.89,3.8-19.51,9.64-19.51,16.18v2.61c0,2.92,1.2,5.71,3.38,8.29-9.52,8.64-15.27,20.52-15.27,35.21,0,9.08,2.2,16.98,6.12,23.69-5.33,2.21-8.09,8.21-6.18,13.74,1.57,4.55,5.84,7.41,10.39,7.41,1.19,0,2.41-.2,3.6-.61l9.87-3.41c10.98,6.34,24.94,9.61,40.14,9.61,.52,0,1.03-.02,1.54-.02l2.97,7.98c1.65,4.43,5.85,7.17,10.31,7.17,1.27,0,2.57-.22,3.83-.69,5.69-2.12,8.59-8.45,6.48-14.14l-1.23-3.3c11.36-3.05,21.1-8.42,28.13-15.97l.89,.09c.37,.04,.74,.06,1.11,.06Zm-20.17-70.45c-3.78,1.51-8.22,2.73-13.07,3.65,.18,.57,.28,1.17,.28,1.8,0,3.28-2.66,5.94-5.94,5.94-.21,0-.42-.01-.62-.03v10.77c0,3.6-2.92,6.52-6.52,6.52s-6.52-2.92-6.52-5.52v-9.22c-1.15-.22-2.55,.24-4.05,.24-3.99,0-7.23-3.24-7.23-7.23,0-.62,.09-1.21,.23-1.78-9.19-.74-17.72-2.52-24.27-5.13-8.4-3.35-10.22-6.62-10.22-7.26s1.82-3.91,10.22-7.26c1.47-.59,3.04-1.13,4.7-1.63,1.81,4.03,3.15,7.19,3.65,8.37,.84-.48,1.81-.77,2.85-.77,1.17,0,2.25,.35,3.16,.95,1.04-1.78,2.81-3.07,4.91-3.46-1.12-2.39-2.69-5.77-4.52-9.7,1.16-1.36,2.8-2.3,4.72-2.5,2.76-.3,5.31,1,6.76,3.15,.93-1.53,2.53-2.63,4.44-2.84,2.42-.26,4.64,.97,5.78,2.95,11.26,.24,22.04,2.05,30.11,5.05,.64-.4,1.39-.63,2.2-.63,2.1,0,3.82,1.54,4.13,3.55,4.02,2.35,5.03,4.3,5.03,4.77,0,.63-1.82,3.91-10.22,7.26Z"/>
</svg>