<?xml version="1.0" encoding="utf-8"?>
<!-- Svg Vector Icons : http://www.onlinewebfonts.com/icon -->
<!DOCTYPE svg PUBLIC "-//W3C//DTD SVG 1.1//EN" "http://www.w3.org/Graphics/SVG/1.1/DTD/svg11.dtd">
<svg version="1.1" xmlns="http://www.w3.org/2000/svg" xmlns:xlink="http://www.w3.org/1999/xlink" x="0px" y="0px" viewBox="0 0 1000 1000" enable-background="new 0 0 1000 1000" xml:space="preserve">
<metadata> Svg Vector Icons : http://www.onlinewebfonts.com/icon </metadata>
<g><g transform="translate(0.000000,511.000000) scale(0.100000,-0.100000)"><path d="M6096.1,4983.7c-68.7-17.8-249.4-183.2-755.9-689.7L4671,3627.2l91.6-91.6c71.3-73.8,94.2-122.1,104.3-211.2c12.7-106.9,7.6-122.2-76.4-206.1c-132.3-132.3-267.2-122.2-437.7,40.7l-76.3,73.8L2210,1163.7C-22-1068.2,62-974.1,120.6-1187.9c17.8-76.3,119.6-193.4,460.6-534.4l435.2-437.7l63.6,50.9c285,218.9,511.5,300.3,832.2,302.9c287.6,0,493.7-58.5,717.7-206.2c173.1-114.5,348.7-313,437.7-493.7c213.8-445.4,147.6-1028.2-157.8-1374.3l-78.9-94.2l394.5-394.5c376.7-376.7,399.6-394.5,511.5-407.2c63.6-7.6,147.6-5.1,188.3,2.6c48.4,12.7,707.5,654,2137.8,2084.3l2069,2064l-61.1,66.2c-122.2,129.8-147.6,249.4-81.4,379.2c43.2,81.4,137.4,129.8,257,129.8c66.2,0,114.5-22.9,185.8-89.1l96.7-86.5l664.3,666.8c720.2,722.8,740.6,753.3,689.7,954.4c-20.4,78.9-101.8,175.6-414.8,488.6l-391.9,389.4l-91.6-78.9c-346.1-305.4-931.4-371.6-1374.3-157.8c-292.7,142.5-552.3,445.4-649,760.9c-71.3,224-68.7,559.9,2.5,773.7c58.6,170.5,119.6,287.6,231.6,425l71.3,89.1L6829.1,4523c-257,259.6-463.2,442.8-501.4,453c-35.6,7.6-84,20.4-104.3,22.9C6203,5004,6144.5,4998.9,6096.1,4983.7z M5617.7,2683c254.5-249.4,287.6-384.3,137.4-534.4c-147.6-147.6-287.6-114.5-514.1,122.2c-224,231.6-246.9,348.7-99.3,496.3c84,84,99.3,89.1,206.2,76.3C5449.7,2833.2,5487.9,2810.3,5617.7,2683z M6572,1726.1c267.2-257,302.8-391.9,150.1-544.6c-147.6-147.6-287.6-114.5-514.1,122.2c-221.4,229-246.9,348.7-101.8,493.7c71.3,71.3,106.9,86.5,193.4,86.5C6396.4,1883.9,6421.9,1868.6,6572,1726.1z M7539.1,759c183.2-178.1,236.7-262.1,236.7-374.1c0-157.8-201.1-292.7-358.8-244.3c-73.8,25.4-346.1,282.5-394.5,374.1c-61.1,119.6-45.8,218.9,50.9,315.6c71.3,71.3,106.9,86.5,193.4,86.5C7363.5,916.8,7389,901.6,7539.1,759z"/></g></g>
</svg>